<?xml version="1.0" encoding="UTF-8" standalone="no"?>
<!-- Created with Inkscape (http://www.inkscape.org/) -->

<svg
   xmlns:dc="http://purl.org/dc/elements/1.1/"
   xmlns:cc="http://creativecommons.org/ns#"
   xmlns:rdf="http://www.w3.org/1999/02/22-rdf-syntax-ns#"
   xmlns:svg="http://www.w3.org/2000/svg"
   xmlns="http://www.w3.org/2000/svg"
   xmlns:sodipodi="http://sodipodi.sourceforge.net/DTD/sodipodi-0.dtd"
   xmlns:inkscape="http://www.inkscape.org/namespaces/inkscape"
   width="400"
   height="400"
   id="svg3214"
   version="1.1"
   inkscape:version="0.48.4 r9939"
   sodipodi:docname="New document 7">
  <defs
     id="defs3216" />
  <sodipodi:namedview
     id="base"
     pagecolor="#ffffff"
     bordercolor="#666666"
     borderopacity="1.0"
     inkscape:pageopacity="0.0"
     inkscape:pageshadow="2"
     inkscape:zoom="0.35"
     inkscape:cx="16.428571"
     inkscape:cy="520"
     inkscape:document-units="px"
     inkscape:current-layer="layer1"
     showgrid="false"
     inkscape:window-width="1022"
     inkscape:window-height="748"
     inkscape:window-x="1280"
     inkscape:window-y="18"
     inkscape:window-maximized="1" />
  <metadata
     id="metadata3219">
    <rdf:RDF>
      <cc:Work
         rdf:about="">
        <dc:format>image/svg+xml</dc:format>
        <dc:type
           rdf:resource="http://purl.org/dc/dcmitype/StillImage" />
        <dc:title></dc:title>
      </cc:Work>
    </rdf:RDF>
  </metadata>
  <g
     inkscape:label="Layer 1"
     inkscape:groupmode="layer"
     id="layer1"
     transform="translate(0,-652.36218)">
    <g
       transform="matrix(0.9135509,0,0,0.9135509,-575.85594,527.34224)"
       id="g27">
      <g
         id="g29">
        <polygon
           style="fill:#151515"
           points="933.643,145.838 933.643,161.385 933.643,161.385 908.954,161.385 934.629,189.244 934.629,202.504 881.746,202.504 881.746,186.979 907.416,186.979 881.746,159.119 881.746,145.838 "
           id="polygon31" />
        <polygon
           style="fill:#151515"
           points="871.265,145.838 871.265,161.385 871.265,161.385 846.576,161.385 872.25,189.244 872.25,202.504 819.367,202.504 819.367,186.979 845.039,186.979 819.367,159.119 819.367,145.838 "
           id="polygon33" />
        <polygon
           style="fill:#151515"
           points="782.856,162.016 782.856,186.329 809.496,186.329 809.496,202.504 763.923,202.504 763.923,145.838 809.496,145.838 809.496,162.016 "
           id="polygon35" />
      </g>
      <polygon
         style="fill:#1673b6"
         points="849.093,565.715 727.62,531.994 700.55,228.374 998,228.374 970.903,531.945 "
         id="polygon37" />
      <polygon
         style="fill:#35a9db"
         points="947.703,512.615 970.86,253.2 849.276,253.2 849.276,539.904 "
         id="polygon39" />
      <g
         id="g41">
        <polygon
           style="fill:#ffffff"
           points="849.275,400.436 849.275,363.2 898.551,363.2 901.953,325.068 849.275,325.068 849.275,287.829 849.404,287.829 942.65,287.829 941.758,297.82 932.605,400.436 "
           id="polygon43" />
        <polygon
           style="fill:#ebebeb"
           points="849.498,459.907 849.336,459.954 807.863,448.754 805.212,419.057 785.061,419.057 767.832,419.057 773.049,477.525 849.326,498.701 849.498,498.652 "
           id="polygon45" />
        <polygon
           style="fill:#ffffff"
           points="849.369,459.94 849.369,498.682 925.709,477.525 926.269,471.234 932.746,398.859 895.386,398.859 890.901,448.729 "
           id="polygon47" />
        <polygon
           style="fill:#ebebeb"
           points="756.123,287.829 849.404,287.829 849.404,310.957 849.404,324.976 849.404,325.068 759.576,325.068 759.576,325.068 759.457,325.068 758.711,316.698 757.014,297.82 "
           id="polygon49" />
        <polygon
           style="fill:#ebebeb"
           points="804.994,363.204 849.275,363.204 849.275,386.333 849.275,400.35 849.275,400.441 808.447,400.441 808.447,400.441 808.328,400.441 807.582,392.073 805.885,373.195 "
           id="polygon51" />
      </g>
    </g>
  </g>
</svg>
