<?xml version="1.0" encoding="UTF-8" standalone="no"?>
<!-- Created with Inkscape (http://www.inkscape.org/) -->

<svg
   xmlns:dc="http://purl.org/dc/elements/1.1/"
   xmlns:cc="http://creativecommons.org/ns#"
   xmlns:rdf="http://www.w3.org/1999/02/22-rdf-syntax-ns#"
   xmlns:svg="http://www.w3.org/2000/svg"
   xmlns="http://www.w3.org/2000/svg"
   xmlns:sodipodi="http://sodipodi.sourceforge.net/DTD/sodipodi-0.dtd"
   xmlns:inkscape="http://www.inkscape.org/namespaces/inkscape"
   width="400"
   height="400"
   id="svg2822"
   sodipodi:version="0.32"
   inkscape:version="0.48.4 r9939"
   sodipodi:docname="debian.svg"
   version="1.1">
  <defs
     id="defs2824" />
  <sodipodi:namedview
     id="base"
     pagecolor="#ffffff"
     bordercolor="#666666"
     borderopacity="1.0"
     inkscape:pageopacity="0.0"
     inkscape:pageshadow="2"
     inkscape:zoom="0.77472527"
     inkscape:cx="158.00709"
     inkscape:cy="240"
     inkscape:current-layer="layer1"
     inkscape:document-units="px"
     inkscape:window-width="1022"
     inkscape:window-height="715"
     inkscape:window-x="1280"
     inkscape:window-y="0"
     showgrid="false"
     inkscape:window-maximized="0" />
  <metadata
     id="metadata2827">
    <rdf:RDF>
      <cc:Work
         rdf:about="">
        <dc:format>image/svg+xml</dc:format>
        <dc:type
           rdf:resource="http://purl.org/dc/dcmitype/StillImage" />
      </cc:Work>
    </rdf:RDF>
  </metadata>
  <g
     id="layer1"
     inkscape:label="Layer 1"
     inkscape:groupmode="layer"
     transform="translate(0,-80)">
    <g
       inkscape:export-ydpi="90"
       inkscape:export-xdpi="90"
       inkscape:export-filename="/home/alrferreira/Desktop/debian/01/gnome-splash-etch.png"
       id="g7148"
       style="font-style:normal;font-variant:normal;font-weight:normal;font-stretch:normal;letter-spacing:normal;word-spacing:normal;text-anchor:start;color:#000000;fill:#d70751;fill-opacity:1;fill-rule:nonzero;stroke:none;stroke-width:0;marker:none;visibility:visible;display:inline;overflow:visible"
       xml:space="preserve"
       transform="matrix(3.4407523,0,0,-3.5970141,-890.84732,1675.8707)"><path
         id="path7150"
         style="color:#000000;fill:#d70751;fill-opacity:1;fill-rule:nonzero;stroke:none;stroke-width:0;marker:none;visibility:visible;display:inline;overflow:visible"
         d="m 325.54,385.09 -0.08,0 -0.07,-0.01 -0.07,0 -0.07,-0.01 -0.06,0 -0.05,-0.01 -0.05,-0.01 -0.04,-0.01 -0.04,-0.01 -0.04,-0.01 -0.02,-0.01 -0.03,-0.02 -0.02,-0.01 -0.01,-0.02 -0.01,-0.02 -0.01,-0.01 0,-0.02 0.01,-0.02 0.01,-0.02 0.01,-0.02 0.01,-0.02 0.02,-0.02 0.03,-0.02 0.02,-0.03 0.04,-0.02 0.03,-0.02 0.04,-0.03 0.04,-0.02 0.05,-0.02 0.05,-0.03 0.05,-0.02 0.05,-0.03 0.06,-0.03 0.06,-0.02 0.07,-0.03 0.06,-0.02 0.07,-0.03 0.07,-0.03 0.08,-0.02 0.07,-0.03 0.08,-0.03 0.09,-0.02 0.16,-0.06 0.18,-0.05 0.19,-0.05 0.19,-0.05 0.2,-0.05 0.2,-0.05 0.21,-0.04 0.21,-0.04 0.21,-0.05 0.22,-0.03 0.22,-0.04 c 0.65,0.51 1.23,1.02 1.76,1.52 -1.46,-0.36 -2.95,-0.37 -4.45,-0.23 z"
         inkscape:connector-curvature="0" /><path
         id="path7152"
         style="color:#000000;fill:#d70751;fill-opacity:1;fill-rule:nonzero;stroke:none;stroke-width:0;marker:none;visibility:visible;display:inline;overflow:visible"
         d="m 335.19,387.49 0.2,0.28 0.19,0.28 0.18,0.29 0.17,0.28 0.17,0.3 0.16,0.29 0.15,0.29 0.14,0.3 0.13,0.3 0.12,0.3 0.11,0.31 0.11,0.31 0.09,0.3 0.08,0.31 0.06,0.32 0.06,0.31 c -0.24,-1.19 -0.88,-2.22 -1.49,-3.31 -3.36,-2.11 -0.32,1.26 0,2.54 -3.62,-4.55 -0.5,-2.73 -0.63,-4 z"
         inkscape:connector-curvature="0" /><path
         id="path7154"
         style="color:#000000;fill:#d70751;fill-opacity:1;fill-rule:nonzero;stroke:none;stroke-width:0;marker:none;visibility:visible;display:inline;overflow:visible"
         d="m 338.75,396.76 0,0.07 0.01,0.08 0,0.07 0.01,0.07 0,0.07 0,0.07 0.01,0.06 0,0.07 0,0.06 0,0.06 0,0.06 0,0.06 0.01,0.06 0,0.05 0,0.06 -0.01,0.05 0,0.05 0,0.05 0,0.05 0,0.05 0,0.04 0,0.05 -0.01,0.04 0,0.04 0,0.05 -0.01,0.04 0,0.03 0,0.04 -0.01,0.04 0,0.03 -0.01,0.04 0,0.03 -0.01,0.03 0,0.03 -0.01,0.03 0,0.03 -0.01,0.02 -0.01,0.03 0,0.02 -0.01,0.03 -0.01,0.02 0,0.02 -0.01,0.02 -0.01,0.02 -0.01,0.02 0,0.01 -0.01,0.02 -0.01,0.01 -0.01,0.02 -0.01,0.01 -0.02,0.02 -0.01,0.02 -0.02,0.02 -0.02,0.01 -0.02,0.01 -0.02,0 -0.02,0 -0.02,0 -0.02,-0.01 -0.03,0 -0.02,-0.02 -0.02,-0.01 -0.02,-0.02 -0.03,-0.02 -0.02,-0.02 -0.02,-0.02 -0.02,-0.03 -0.03,-0.03 -0.02,-0.03 -0.02,-0.04 -0.02,-0.03 -0.03,-0.04 -0.02,-0.04 -0.02,-0.04 -0.02,-0.05 -0.02,-0.04 -0.02,-0.05 -0.03,-0.05 -0.02,-0.05 -0.02,-0.05 -0.01,-0.05 -0.02,-0.05 -0.02,-0.06 -0.02,-0.05 -0.02,-0.06 -0.03,-0.11 -0.03,-0.12 c 0.34,-0.17 0.61,-2.28 0.93,-0.97 z"
         inkscape:connector-curvature="0" /><path
         id="path7156"
         style="color:#000000;fill:#d70751;fill-opacity:1;fill-rule:nonzero;stroke:none;stroke-width:0;marker:none;visibility:visible;display:inline;overflow:visible"
         d="m 318.73,440.98 0.18,-0.03 0.18,-0.03 0.19,-0.03 0.18,-0.03 0.08,-0.01 0.09,-0.02 0.09,-0.01 0.08,-0.02 0.08,-0.01 0.08,-0.02 0.07,-0.01 0.08,-0.02 0.07,-0.01 0.06,-0.02 0.06,-0.02 0.06,-0.01 0.06,-0.02 0.04,-0.02 0.05,-0.01 0.04,-0.02 0.03,-0.02 0.03,-0.02 0.01,-0.01 0.01,-0.01 0.01,-0.01 0.01,0 0,-0.01 0.01,-0.01 0,-0.01 0,-0.01 0,-0.02 0,-0.01 -0.01,-0.01 -0.01,-0.01 c 1.06,0.23 1.29,0.44 -1.91,0.53 z"
         inkscape:connector-curvature="0" /><polygon
         id="polygon7158"
         style="color:#000000;fill:#d70751;fill-opacity:1;fill-rule:nonzero;stroke:none;stroke-width:0;marker:none;visibility:visible;display:inline;overflow:visible"
         points="319.97,440.31 320.6,440.37 320.64,440.45 320.64,440.45 " /><path
         id="path7160"
         style="color:#000000;fill:#d70751;fill-opacity:1;fill-rule:nonzero;stroke:none;stroke-width:0;marker:none;visibility:visible;display:inline;overflow:visible"
         d="m 350.55,395.53 0.01,-0.27 0,-0.26 -0.01,-0.25 -0.01,-0.25 -0.01,-0.23 -0.02,-0.24 -0.03,-0.22 -0.03,-0.22 -0.04,-0.21 -0.04,-0.22 -0.04,-0.2 -0.05,-0.2 -0.1,-0.4 -0.12,-0.39 -0.13,-0.38 -0.14,-0.39 -0.15,-0.38 -0.16,-0.39 -0.16,-0.4 -0.16,-0.42 -0.08,-0.22 -0.08,-0.22 -0.08,-0.22 -0.08,-0.23 -1.55,-0.78 c -1.27,-2.47 0.12,-1.56 -0.79,-3.53 -1.99,-1.77 -6.02,-5.52 -7.31,-5.86 -0.95,0.02 0.63,1.11 0.84,1.54 -2.65,-1.82 -2.13,-2.74 -6.19,-3.85 l -0.12,0.27 c -10.02,-4.72 -23.93,4.62 -23.75,17.37 -0.11,-0.81 -0.31,-0.61 -0.53,-0.94 -0.51,6.56 3.03,13.15 9.01,15.83 5.85,2.9 12.7,1.71 16.89,-2.19 -2.3,3.01 -6.88,6.21 -12.31,5.91 -5.32,-0.09 -10.29,-3.47 -11.95,-7.13 -2.72,-1.72 -3.04,-6.61 -4.22,-7.51 -1.6,-11.74 3,-16.81 10.78,-22.77 1.23,-0.83 0.34,-0.95 0.51,-1.58 -2.58,1.21 -4.95,3.04 -6.9,5.27 1.04,-1.5 2.15,-2.98 3.59,-4.13 -2.44,0.82 -5.7,5.91 -6.64,6.11 4.2,-7.52 17.05,-13.19 23.78,-10.38 -3.12,-0.11 -7.07,-0.06 -10.57,1.23 -1.47,0.76 -3.47,2.32 -3.11,2.61 9.18,-3.42 18.66,-2.59 26.61,3.77 2.02,1.58 4.23,4.26 4.87,4.29 -0.96,-1.44 0.16,-0.69 -0.58,-1.97 2.01,3.25 -0.87,1.33 2.09,5.61 l 1.09,-1.5 c -0.41,2.7 3.35,5.97 2.96,10.23 0.86,1.31 0.96,-1.4 0.05,-4.4 1.27,3.33 0.34,3.87 0.66,6.61 0.35,-0.92 0.81,-1.9 1.05,-2.88 -0.83,3.22 0.85,5.42 1.26,7.29 -0.41,0.18 -1.27,-1.42 -1.47,2.38 0.03,1.65 0.46,0.86 0.63,1.27 -0.33,0.18 -1.18,1.45 -1.7,3.87 0.38,0.57 1,-1.48 1.52,-1.56 -0.33,1.93 -0.9,3.4 -0.92,4.88 -1.49,3.11 -0.53,-0.41 -1.74,1.34 -1.58,4.95 1.32,1.15 1.52,3.4 2.4,-3.49 3.77,-8.89 4.4,-11.12 -0.48,2.72 -1.26,5.37 -2.21,7.92 0.74,-0.31 -1.17,5.61 0.96,1.69 -2.28,8.35 -9.72,16.15 -16.57,19.82 0.84,-0.77 1.9,-1.73 1.52,-1.88 -3.41,2.03 -2.81,2.18 -3.3,3.04 -2.77,1.13 -2.95,-0.09 -4.79,0 -5.23,2.77 -6.24,2.48 -11.05,4.21 l 0.22,-1.02 c -3.47,1.16 -4.04,-0.44 -7.79,0 -0.23,0.18 1.2,0.64 2.38,0.81 -3.35,-0.44 -3.2,0.66 -6.47,-0.12 0.8,0.57 1.66,0.94 2.52,1.42 -2.73,-0.16 -6.52,-1.59 -5.35,-0.29 -4.46,-1.99 -12.37,-4.78 -16.81,-8.94 l -0.14,0.93 c -2.04,-2.44 -8.88,-7.29 -9.42,-10.46 l -0.55,-0.13 c -1.05,-1.79 -1.74,-3.82 -2.58,-5.67 -1.38,-2.36 -2.03,-0.91 -1.83,-1.28 -2.73,-5.52 -4.08,-10.16 -5.25,-13.97 0.84,-1.24 0.02,-7.49 0.34,-12.49 -1.37,-24.71 17.34,-48.69 37.78,-54.23 3,-1.07 7.45,-1.03 11.25,-1.14 -4.48,1.28 -5.05,0.68 -9.41,2.2 -3.14,1.48 -3.83,3.17 -6.06,5.1 l 0.88,-1.56 c -4.36,1.55 -2.54,1.91 -6.09,3.04 l 0.94,1.23 c -1.41,0.1 -3.75,2.38 -4.38,3.64 l -1.55,-0.06 c -1.86,2.3 -2.85,3.95 -2.78,5.24 l -0.5,-0.89 c -0.57,0.97 -6.84,8.6 -3.59,6.82 -0.6,0.56 -1.41,0.9 -2.28,2.49 l 0.66,0.76 c -1.56,2.01 -2.88,4.6 -2.78,5.46 0.84,-1.13 1.42,-1.34 1.99,-1.53 -3.96,9.81 -4.18,0.53 -7.17,9.99 l 0.63,0.05 c -0.49,0.73 -0.78,1.53 -1.17,2.31 l 0.27,2.75 c -2.84,3.29 -0.79,14 -0.38,19.87 0.28,2.39 2.38,4.93 3.97,8.92 l -0.97,0.17 c 1.85,3.23 10.58,12.99 14.63,12.49 1.96,2.46 -0.39,0 -0.77,0.62 4.3,4.46 5.65,3.15 8.56,3.95 3.13,1.86 -2.69,-0.73 -1.21,0.71 5.42,1.38 3.84,3.14 10.9,3.84 0.75,-0.42 -1.73,-0.65 -2.35,-1.2 4.51,2.21 14.28,1.7 20.62,-1.23 7.36,-3.43 15.63,-13.6 15.95,-23.17 l 0.37,-0.09 c -0.18,-3.81 0.59,-8.2 -0.75,-12.24 l 0.91,1.91 z"
         inkscape:connector-curvature="0" /><path
         id="path7162"
         style="color:#000000;fill:#d70751;fill-opacity:1;fill-rule:nonzero;stroke:none;stroke-width:0;marker:none;visibility:visible;display:inline;overflow:visible"
         d="m 305.93,382.62 -0.25,-1.26 c 1.18,-1.6 2.12,-3.34 3.62,-4.59 -1.08,2.11 -1.89,2.99 -3.37,5.85 z"
         inkscape:connector-curvature="0" /><path
         id="path7164"
         style="color:#000000;fill:#d70751;fill-opacity:1;fill-rule:nonzero;stroke:none;stroke-width:0;marker:none;visibility:visible;display:inline;overflow:visible"
         d="m 308.72,382.73 -0.11,0.13 -0.11,0.14 -0.1,0.13 -0.1,0.14 -0.1,0.15 -0.09,0.14 -0.09,0.15 -0.08,0.14 -0.08,0.16 -0.08,0.15 -0.16,0.3 -0.15,0.31 -0.16,0.31 c 0.4,-1.46 1.21,-2.7 1.96,-3.98 l -0.55,1.63 z"
         inkscape:connector-curvature="0" /><path
         id="path7166"
         style="color:#000000;fill:#d70751;fill-opacity:1;fill-rule:nonzero;stroke:none;stroke-width:0;marker:none;visibility:visible;display:inline;overflow:visible"
         d="m 358.12,393.47 -0.26,-0.66 c -0.48,-3.44 -1.52,-6.84 -3.13,-10 1.77,3.33 2.91,6.97 3.39,10.66 z"
         inkscape:connector-curvature="0" /><path
         id="path7168"
         style="color:#000000;fill:#d70751;fill-opacity:1;fill-rule:nonzero;stroke:none;stroke-width:0;marker:none;visibility:visible;display:inline;overflow:visible"
         d="m 319.09,441.85 0.11,0.04 0.12,0.03 0.12,0.04 0.13,0.03 0.12,0.02 0.13,0.03 0.13,0.02 0.13,0.02 0.28,0.03 0.27,0.03 0.28,0.02 0.28,0.01 0.57,0.04 0.28,0.01 0.28,0.02 0.27,0.03 0.27,0.03 0.12,0.02 0.13,0.02 0.13,0.02 0.12,0.03 c -1.68,-0.15 -3.35,-0.23 -5,-0.44 l 0.73,-0.1 z"
         inkscape:connector-curvature="0" /><path
         id="path7170"
         style="color:#000000;fill:#d70751;fill-opacity:1;fill-rule:nonzero;stroke:none;stroke-width:0;marker:none;visibility:visible;display:inline;overflow:visible"
         d="m 276.43,419.17 0.01,-0.12 0.01,-0.12 0,-0.12 0,-0.11 0,-0.11 0,-0.11 -0.01,-0.1 -0.01,-0.11 -0.01,-0.1 -0.01,-0.1 -0.02,-0.09 -0.02,-0.1 -0.02,-0.09 -0.02,-0.08 -0.02,-0.09 -0.03,-0.08 -0.02,-0.08 -0.03,-0.08 -0.03,-0.07 -0.02,-0.07 -0.03,-0.07 -0.03,-0.07 -0.03,-0.06 -0.02,-0.06 -0.03,-0.06 -0.03,-0.05 -0.03,-0.05 -0.02,-0.05 -0.03,-0.05 -0.02,-0.04 -0.02,-0.04 -0.02,-0.03 -0.02,-0.03 -0.02,-0.03 -0.02,-0.03 -0.01,-0.02 -0.01,-0.02 -0.01,-0.02 -0.01,-0.01 0,-0.01 0,-0.01 0,0 0,0 0.01,0 0.02,0.01 0.01,0.01 0.02,0.02 0.03,0.02 0.02,0.02 0.04,0.02 0.01,0.02 0.02,0.01 0.02,0.02 0.03,0.01 0.02,0.02 0.02,0.02 0.03,0.02 0.02,0.02 0.03,0.02 0.03,0.02 0.03,0.03 0.03,0.02 0.04,0.03 0.03,0.02 0.04,0.03 0.04,0.03 0.03,0.03 0.04,0.03 0.05,0.03 0.04,0.03 0.05,0.03 0.04,0.03 0.05,0.04 0.05,0.03 0.05,0.04 0.05,0.04 0.06,0.04 0.06,0.04 c 1.3,2.95 -0.52,0.81 -0.5,1.89 z"
         inkscape:connector-curvature="0" /><path
         id="path7172"
         style="color:#000000;fill:#d70751;fill-opacity:1;fill-rule:nonzero;stroke:none;stroke-width:0;marker:none;visibility:visible;display:inline;overflow:visible"
         d="m 273.56,407.17 0.05,0.16 0.05,0.16 0.05,0.15 0.04,0.15 0.04,0.14 0.04,0.14 0.04,0.14 0.03,0.14 0.04,0.13 0.03,0.13 0.03,0.12 0.03,0.13 0.02,0.12 0.03,0.12 0.05,0.23 0.04,0.22 0.04,0.21 0.04,0.21 0.04,0.2 0.04,0.2 0.03,0.19 0.04,0.19 0.04,0.19 c -1.56,-1.99 -0.72,-2.42 -0.88,-3.77 z"
         inkscape:connector-curvature="0" /></g>  </g>
</svg>
