<?xml version="1.0" encoding="UTF-8" standalone="no"?>
<!-- Created with Inkscape (http://www.inkscape.org/) -->

<svg
   xmlns:dc="http://purl.org/dc/elements/1.1/"
   xmlns:cc="http://creativecommons.org/ns#"
   xmlns:rdf="http://www.w3.org/1999/02/22-rdf-syntax-ns#"
   xmlns:svg="http://www.w3.org/2000/svg"
   xmlns="http://www.w3.org/2000/svg"
   xmlns:sodipodi="http://sodipodi.sourceforge.net/DTD/sodipodi-0.dtd"
   xmlns:inkscape="http://www.inkscape.org/namespaces/inkscape"
   id="svg3004"
   version="1.1"
   inkscape:version="0.48.4 r9939"
   width="400"
   height="400"
   xml:space="preserve"
   sodipodi:docname="nodejs.svg"
   inkscape:export-filename="/Users/andrew/Downloads/nodejs.png"
   inkscape:export-xdpi="90"
   inkscape:export-ydpi="90"><sodipodi:namedview
     pagecolor="#ffffff"
     bordercolor="#666666"
     borderopacity="1"
     objecttolerance="10"
     gridtolerance="10"
     guidetolerance="10"
     inkscape:pageopacity="0"
     inkscape:pageshadow="2"
     inkscape:window-width="1598"
     inkscape:window-height="880"
     id="namedview3006"
     showgrid="false"
     inkscape:zoom="0.88476563"
     inkscape:cx="79.328735"
     inkscape:cy="98.409288"
     inkscape:window-x="0"
     inkscape:window-y="18"
     inkscape:window-maximized="1"
     inkscape:current-layer="g3012" /><metadata
     id="metadata3010"><rdf:RDF><cc:Work
         rdf:about=""><dc:format>image/svg+xml</dc:format><dc:type
           rdf:resource="http://purl.org/dc/dcmitype/StillImage" /><dc:title></dc:title></cc:Work></rdf:RDF></metadata><defs
     id="defs3008"><clipPath
       id="clipPath3020"
       clipPathUnits="userSpaceOnUse"><path
         inkscape:connector-curvature="0"
         id="path3022"
         d="M 0,501.602 0,0 l 1863.85,0 0,501.602 -1863.85,0 z" /></clipPath></defs><g
     transform="matrix(1.25,0,0,-1.25,0,400)"
     inkscape:label="ink_ext_XXXXXX"
     inkscape:groupmode="layer"
     id="g3012"><path
       inkscape:connector-curvature="0"
       id="path3032"
       d="m 159.99998,317.44283 c -4.24265,0 -8.3675,-1.1227 -12.01667,-3.18809 L 32.476218,247.54998 c -7.474875,-4.30344 -12.01667,-12.19324 -12.01667,-20.84524 l 0,-133.16425 c 0,-8.648466 4.541795,-16.772021 12.01667,-21.090472 l 30.164262,-17.4119 c 14.655436,-7.222948 20.060491,-7.111905 26.730962,-7.111905 21.698668,0 34.088088,12.921001 34.088088,35.804756 l 0,131.447591 c 0,1.85792 -1.60877,3.43333 -3.43333,3.43333 l -14.46905,0 c -1.85401,0 -3.43333,-1.57541 -3.43333,-3.43333 l 0,-131.447591 c 0,-10.142851 -10.564845,-20.098047 -27.711906,-11.52619 L 43.021443,90.352396 c -1.108465,0.605445 -1.961885,1.915901 -1.961885,3.188094 l 0,133.16425 c 0,1.26446 0.843611,2.54852 1.961885,3.1881 l 115.261887,66.45951 c 1.07904,0.62094 2.36411,0.62094 3.43333,0 l 115.26187,-66.45951 c 1.09868,-0.6592 1.96191,-1.88539 1.96191,-3.1881 l 0,-133.16425 c 0,-1.272199 -0.63761,-2.574999 -1.71665,-3.188094 L 161.71666,23.892885 c -0.99075,-0.593963 -2.35429,-0.59397 -3.43333,0 l -29.67382,17.411901 c -0.88285,0.517354 -2.08941,0.724234 -2.94286,0.245236 -8.19093,-4.644222 -9.73104,-5.184528 -17.41188,-7.847618 -1.89325,-0.662927 -4.76744,-1.931299 0.98094,-5.149999 l 38.7476,-22.8071355 c 3.68841,-2.1343478 7.79859,-3.1880945 12.01667,-3.1880945 4.27697,0 8.3283,1.0537467 12.01667,3.1880945 L 287.52378,72.450018 c 7.47485,4.349048 12.01667,12.442006 12.01667,21.090472 l 0,133.16425 c 0,8.652 -4.54182,16.52316 -12.01667,20.84524 l -115.50713,66.70476 c -3.61971,2.06539 -7.77401,3.18809 -12.01667,3.18809 z m 30.9,-95.39761 c -32.89131,0 -52.48095,-13.75295 -52.48095,-37.03095 0,-25.25265 19.4425,-32.19092 51.00954,-35.31427 37.76666,-3.69721 40.70952,-9.24252 40.70952,-16.67618 0,-12.89462 -10.2804,-18.39285 -34.57857,-18.39285 -30.52724,0 -37.23695,7.62101 -39.48334,22.80712 -0.26476,1.62839 -1.52046,2.69762 -3.18809,2.69762 l -14.95953,0 c -1.84417,0 -3.43333,-1.34096 -3.43333,-3.18808 0,-19.43855 10.57468,-42.671427 61.06429,-42.671427 36.55026,0 57.63093,14.346437 57.63093,39.483327 0,24.91912 -17.02931,31.60824 -52.48095,36.29523 -35.82436,4.73996 -39.23807,7.30416 -39.23807,15.69524 0,6.92454 2.89381,16.18571 29.42855,16.18571 23.69982,0 32.4597,-5.11174 36.05001,-21.09048 0.3139,-1.50282 1.63818,-2.69762 3.1881,-2.69762 l 14.95949,0 c 0.92212,0 1.81478,0.31882 2.45239,0.98095 0.62781,0.70923 1.06923,1.74709 0.98094,2.69762 -2.31502,27.51965 -20.66864,40.21905 -57.63093,40.21905 z"
       style="fill:#a4a4a4;fill-opacity:1;fill-rule:nonzero;stroke:none" /></g></svg>